# Blender v3.4.0 OBJ File: 'demostuff.blend'
# www.blender.org
mtllib Dodeca.mtl
o bevel_dodeca_Icosphere.006
v -0.428456 -0.725007 0.311292
v -0.428456 -0.725007 -0.311292
v 0.163659 -0.725004 -0.503681
v 0.529608 -0.725002 0.000000
v 0.163659 -0.725004 0.503681
v 0.552570 -0.707461 0.016683
v 0.879884 -0.177857 0.016686
v 0.716227 0.149461 0.520365
v 0.287768 -0.177856 0.831656
v 0.186623 -0.707462 0.520365
v -0.437229 -0.707461 0.338293
v 0.154888 -0.707462 0.530677
v 0.256026 -0.177856 0.841970
v -0.273572 0.149465 0.841970
v -0.702030 -0.177856 0.530680
v -0.456846 -0.707461 -0.311292
v -0.456846 -0.707461 0.311292
v -0.721650 -0.177856 0.503675
v -0.885305 0.149469 0.000000
v -0.721650 -0.177856 -0.503675
v 0.154888 -0.707462 -0.530677
v -0.437229 -0.707461 -0.338293
v -0.702030 -0.177856 -0.530680
v -0.273572 0.149465 -0.841970
v 0.256026 -0.177856 -0.841970
v 0.879884 -0.177857 -0.016686
v 0.552570 -0.707461 -0.016683
v 0.186623 -0.707462 -0.520365
v 0.287768 -0.177856 -0.831656
v 0.716227 0.149461 -0.520365
v -0.256026 0.177856 0.841970
v 0.273572 -0.149465 0.841970
v 0.702030 0.177856 0.530680
v 0.437229 0.707461 0.338293
v -0.154888 0.707462 0.530677
v -0.879884 0.177857 0.016686
v -0.716227 -0.149461 0.520365
v -0.287768 0.177856 0.831656
v -0.186623 0.707462 0.520365
v -0.552570 0.707461 0.016683
v -0.287768 0.177856 -0.831656
v -0.716227 -0.149461 -0.520365
v -0.879884 0.177857 -0.016686
v -0.552570 0.707461 -0.016683
v -0.186623 0.707462 -0.520365
v 0.702030 0.177856 -0.530680
v 0.273572 -0.149465 -0.841970
v -0.256026 0.177856 -0.841970
v -0.154888 0.707462 -0.530677
v 0.437229 0.707461 -0.338293
v 0.721650 0.177856 0.503675
v 0.885305 -0.149469 0.000000
v 0.721650 0.177856 -0.503675
v 0.456846 0.707461 -0.311292
v 0.456846 0.707461 0.311292
v -0.163659 0.725004 0.503681
v 0.428456 0.725007 0.311292
v 0.428456 0.725007 -0.311292
v -0.163659 0.725004 -0.503681
v -0.529608 0.725002 0.000000
vt 0.361083 0.106449
vt 0.363637 0.102025
vt 0.366191 0.106449
vt 0.727273 0.102024
vt 0.729827 0.106449
vt 0.724718 0.106449
vt 0.181819 0.102025
vt 0.184373 0.106449
vt 0.179265 0.106449
vt 0.545455 0.102025
vt 0.548009 0.106449
vt 0.542901 0.106449
vt 0.179264 0.208472
vt 0.184373 0.208472
vt 0.181819 0.212897
vt 0.272728 0.259484
vt 0.275283 0.263910
vt 0.270173 0.263910
vt 0.361083 0.208472
vt 0.366191 0.208472
vt 0.363637 0.212897
vt 0.090910 0.259485
vt 0.093465 0.263910
vt 0.088355 0.263910
vt 0.818182 0.259485
vt 0.820736 0.263910
vt 0.815628 0.263910
vt 0.636364 0.259485
vt 0.638918 0.263910
vt 0.633809 0.263910
vt 0.906536 0.208472
vt 0.911646 0.208472
vt 0.909091 0.212898
vt 0.724718 0.208472
vt 0.729828 0.208472
vt 0.727273 0.212898
vt 0.542901 0.208472
vt 0.548010 0.208472
vt 0.545455 0.212897
vt 0.454546 0.259484
vt 0.457101 0.263910
vt 0.451991 0.263910
vt 0.270173 0.365933
vt 0.275282 0.365933
vt 0.272728 0.370358
vt 0.088356 0.365933
vt 0.093464 0.365933
vt 0.090910 0.370357
vt 0.815628 0.365933
vt 0.820736 0.365933
vt 0.818182 0.370357
vt 0.633810 0.365933
vt 0.638918 0.365933
vt 0.636364 0.370357
vt 0.451992 0.365933
vt 0.457101 0.365933
vt 0.454546 0.370358
vt 0.909091 0.102024
vt 0.864914 0.076518
vt 0.903466 0.009742
vt 0.914716 0.009743
vt 0.953269 0.076519
vt 0.228551 0.080943
vt 0.267104 0.147720
vt 0.261479 0.157461
vt 0.184373 0.157461
vt 0.911646 0.106449
vt 0.955823 0.080943
vt 0.994376 0.147719
vt 0.988750 0.157461
vt 0.911645 0.157461
vt 0.862360 0.080942
vt 0.906537 0.106449
vt 0.906536 0.157461
vt 0.829432 0.157461
vt 0.823807 0.147718
vt 0.680541 0.080943
vt 0.724718 0.157461
vt 0.647614 0.157461
vt 0.641988 0.147719
vt 0.460170 0.147720
vt 0.498723 0.080943
vt 0.542901 0.157461
vt 0.465795 0.157461
vt 0.187443 0.324663
vt 0.193069 0.314921
vt 0.270173 0.314921
vt 0.225996 0.391439
vt 0.864914 0.238403
vt 0.903466 0.305179
vt 0.897842 0.314921
vt 0.820736 0.314921
vt 0.732898 0.305179
vt 0.771450 0.238403
vt 0.815628 0.314921
vt 0.738522 0.314921
vt 0.551080 0.305178
vt 0.589633 0.238402
vt 0.633810 0.314921
vt 0.556704 0.314921
vt 0.275283 0.314921
vt 0.352387 0.314921
vt 0.358012 0.324664
vt 0.319459 0.391440
vt 0.228550 0.395863
vt 0.316905 0.395864
vt 0.278353 0.462640
vt 0.267103 0.462639
vt 0.225997 0.076520
vt 0.501277 0.076520
vt 0.683095 0.076519
vt 0.955822 0.233979
vt 0.953268 0.238404
vt 0.864914 0.391439
vt 0.862360 0.395863
vt 0.774004 0.395863
vt 0.771450 0.391439
vt 0.592187 0.395864
vt 0.589632 0.391439
vn 0.6071 -0.7947 0.0000
vn -0.4911 -0.7947 -0.3568
vn 0.1876 -0.7947 0.5774
vn 0.1876 -0.7947 -0.5774
vn 0.3035 -0.1876 0.9342
vn 0.7947 0.1876 0.5774
vn 0.9822 -0.1876 -0.0000
vn -0.3035 0.1876 0.9342
vn -0.9822 0.1876 -0.0000
vn -0.3035 0.1876 -0.9342
vn -0.7947 -0.1876 0.5774
vn -0.7947 -0.1876 -0.5774
vn 0.3035 -0.1876 -0.9342
vn 0.7947 0.1876 -0.5774
vn 0.4911 0.7947 0.3568
vn -0.1876 0.7947 0.5774
vn -0.6071 0.7947 0.0000
vn -0.1876 0.7947 -0.5774
vn 0.4911 0.7947 -0.3568
vn 0.0000 -1.0000 0.0000
vn 0.7236 -0.4472 0.5257
vn -0.2764 -0.4472 0.8507
vn -0.8944 -0.4472 -0.0000
vn -0.2764 -0.4472 -0.8507
vn 0.7236 -0.4472 -0.5257
vn 0.2764 0.4472 0.8507
vn -0.7236 0.4472 0.5257
vn -0.7236 0.4472 -0.5257
vn 0.2764 0.4472 -0.8507
vn 0.8944 0.4472 -0.0000
vn -0.0000 1.0000 0.0000
vn -0.1625 -0.8506 0.5000
vn 0.4253 -0.8506 0.3090
vn 0.2629 -0.5257 0.8090
vn 0.8507 -0.5257 -0.0000
vn 0.4253 -0.8506 -0.3090
vn -0.5257 -0.8507 -0.0000
vn -0.6882 -0.5257 0.5000
vn -0.1625 -0.8506 -0.5000
vn -0.6882 -0.5257 -0.5000
vn 0.2629 -0.5257 -0.8090
vn 0.9511 -0.0000 0.3090
vn 0.9511 -0.0000 -0.3090
vn -0.0000 0.0000 1.0000
vn 0.5878 -0.0000 0.8090
vn -0.9511 0.0000 0.3090
vn -0.5878 0.0000 0.8090
vn -0.5878 0.0000 -0.8090
vn -0.9511 0.0000 -0.3090
vn 0.5878 -0.0000 -0.8090
vn -0.0000 0.0000 -1.0000
vn 0.6882 0.5257 0.5000
vn -0.2629 0.5257 0.8090
vn -0.8507 0.5257 -0.0000
vn -0.2629 0.5257 -0.8090
vn 0.6882 0.5257 -0.5000
vn 0.1625 0.8506 0.5000
vn 0.5257 0.8507 -0.0000
vn -0.4253 0.8506 0.3090
vn -0.4253 0.8506 -0.3090
vn 0.1625 0.8506 -0.5000
vn -0.4911 -0.7947 0.3568
g bevel_dodeca_Icosphere.006_None
usemtl None
s off
f 6/1/1 4/2/1 27/3/1
f 2/4/2 16/5/2 22/6/2
f 5/7/3 10/8/3 12/9/3
f 3/10/4 21/11/4 28/12/4
f 13/13/5 9/14/5 32/15/5
f 8/16/6 51/17/6 33/18/6
f 7/19/7 26/20/7 52/21/7
f 14/22/8 31/23/8 38/24/8
f 19/25/9 36/26/9 43/27/9
f 24/28/10 41/29/10 48/30/10
f 18/31/11 15/32/11 37/33/11
f 23/34/12 20/35/12 42/36/12
f 29/37/13 25/38/13 47/39/13
f 30/40/14 46/41/14 53/42/14
f 34/43/15 55/44/15 57/45/15
f 39/46/16 35/47/16 56/48/16
f 44/49/17 40/50/17 60/51/17
f 49/52/18 45/53/18 59/54/18
f 54/55/19 50/56/19 58/57/19
f 1/58/20 2/59/20 3/60/20 4/61/20 5/62/20
f 6/63/21 7/64/21 8/65/21 9/66/21 10/8/21
f 11/67/22 12/68/22 13/69/22 14/70/22 15/71/22
f 16/72/23 17/73/23 18/74/23 19/75/23 20/76/23
f 21/77/24 22/6/24 23/78/24 24/79/24 25/80/24
f 26/81/25 27/82/25 28/12/25 29/83/25 30/84/25
f 31/85/26 32/86/26 33/87/26 34/43/26 35/88/26
f 36/26/27 37/89/27 38/90/27 39/91/27 40/92/27
f 41/93/28 42/94/28 43/27/28 44/95/28 45/96/28
f 46/97/29 47/98/29 48/30/29 49/99/29 50/100/29
f 51/101/30 52/102/30 53/103/30 54/104/30 55/44/30
f 56/105/31 57/45/31 58/106/31 59/107/31 60/108/31
f 11/67/32 1/58/32 5/62/32 12/68/32
f 4/109/33 6/63/33 10/8/33 5/7/33
f 9/14/34 13/13/34 12/9/34 10/8/34
f 26/20/35 7/19/35 6/1/35 27/3/35
f 3/10/36 28/12/36 27/82/36 4/110/36
f 16/72/37 2/59/37 1/58/37 17/73/37
f 15/32/38 18/31/38 17/73/38 11/67/38
f 21/77/39 3/111/39 2/4/39 22/6/39
f 20/35/40 23/34/40 22/6/40 16/5/40
f 25/38/41 29/37/41 28/12/41 21/11/41
f 51/17/42 8/16/42 7/19/42 52/21/42
f 30/40/43 53/42/43 52/21/43 26/20/43
f 31/23/44 14/22/44 13/13/44 32/15/44
f 8/16/45 33/18/45 32/15/45 9/14/45
f 36/26/46 19/25/46 18/31/46 37/33/46
f 14/112/47 38/113/47 37/33/47 15/32/47
f 41/29/48 24/28/48 23/34/48 42/36/48
f 19/25/49 43/27/49 42/36/49 20/35/49
f 46/41/50 30/40/50 29/37/50 47/39/50
f 24/28/51 48/30/51 47/39/51 25/38/51
f 55/44/52 34/43/52 33/18/52 51/17/52
f 35/47/53 39/46/53 38/24/53 31/23/53
f 40/50/54 44/49/54 43/27/54 36/26/54
f 45/53/55 49/52/55 48/30/55 41/29/55
f 50/56/56 54/55/56 53/42/56 46/41/56
f 56/105/57 35/88/57 34/43/57 57/45/57
f 54/104/58 58/106/58 57/45/58 55/44/58
f 60/51/59 40/50/59 39/114/59 56/115/59
f 59/116/60 45/117/60 44/49/60 60/51/60
f 58/118/61 50/119/61 49/52/61 59/54/61
f 1/58/62 11/67/62 17/73/62
